<?xml version="1.0" encoding="UTF-8"?>
<svg xmlns="http://www.w3.org/2000/svg" viewBox="30.256 0 115.195 86.3">
  <defs> <style> * { fill: #000; } </style> </defs>
  <rect x="30.256" width="23.959" height="86.3" />
  <rect transform="translate(92.711 -67.737) rotate(42.887)" x="43.541" y="106.306" width="23.959" height="22.913" />
  <path transform="translate(-2.275 -61.431)" d="M117.927,68.248a23.973,23.973,0,0,0-33.882,1.224L64.251,90.75a3.282,3.282,0,0,0-.878,2.234v7.65l13.1,12.181,41.459-44.567Z" />
  <polygon points="117.019 59.891 101.415 76.67 111.782 86.3 145.451 86.3 117.019 59.891" />
  <path transform="translate(-2.275 -61.431)" d="M75.589,112" />
  <path transform="translate(-2.275 -61.431)" d="M97.282,100.72,63.514,137.012l0,5.19a3.271,3.271,0,0,0,1.821,2.935,23.836,23.836,0,0,0,27.956-5.156l.037.033,21.444-23.047Z" />
</svg>
