<svg id="Layer_1" data-name="Layer 1" xmlns="http://www.w3.org/2000/svg" viewBox="30.256 0 115.195 86.3"><defs><style>.cls-1{fill:#231f20;}</style></defs><rect class="cls-1" x="30.256" width="23.959" height="86.3"/><rect class="cls-1" x="43.541" y="106.306" width="23.959" height="22.913" transform="translate(92.711 -67.737) rotate(42.887)"/><path class="cls-1" d="M117.927,68.248a23.973,23.973,0,0,0-33.882,1.224L64.251,90.75a3.282,3.282,0,0,0-.878,2.234v7.65l13.1,12.181,41.459-44.567Z" transform="translate(-2.275 -61.431)"/><polygon class="cls-1" points="117.019 59.891 101.415 76.67 111.782 86.3 145.451 86.3 117.019 59.891"/><path class="cls-1" d="M75.589,112" transform="translate(-2.275 -61.431)"/><path class="cls-1" d="M97.282,100.72,63.514,137.012l0,5.19a3.271,3.271,0,0,0,1.821,2.935,23.836,23.836,0,0,0,27.956-5.156l.037.033,21.444-23.047Z" transform="translate(-2.275 -61.431)"/></svg>
